<?xml version="1.0" encoding="UTF-8" standalone="no"?>
<!-- Created with Inkscape (http://www.inkscape.org/) -->

<svg
   version="1.1"
   id="svg308"
   xml:space="preserve"
   width="800"
   height="800"
   viewBox="0 0 800 800"
   sodipodi:docname="airplane-outline-vector-publicdomainvectors.org.svg"
   inkscape:version="1.1.2 (b8e25be833, 2022-02-05)"
   xmlns:inkscape="http://www.inkscape.org/namespaces/inkscape"
   xmlns:sodipodi="http://sodipodi.sourceforge.net/DTD/sodipodi-0.dtd"
   xmlns="http://www.w3.org/2000/svg"
   xmlns:svg="http://www.w3.org/2000/svg"><defs
     id="defs312"><clipPath
       clipPathUnits="userSpaceOnUse"
       id="clipPath322"><path
         d="M 0,600 H 600 V 0 H 0 Z"
         id="path320" /></clipPath></defs><sodipodi:namedview
     id="namedview310"
     pagecolor="#ffffff"
     bordercolor="#666666"
     borderopacity="1.0"
     inkscape:pageshadow="2"
     inkscape:pageopacity="0.0"
     inkscape:pagecheckerboard="0"
     showgrid="false"
     inkscape:zoom="1.03875"
     inkscape:cx="400"
     inkscape:cy="400"
     inkscape:window-width="1920"
     inkscape:window-height="1018"
     inkscape:window-x="-8"
     inkscape:window-y="-8"
     inkscape:window-maximized="1"
     inkscape:current-layer="g314" /><g
     id="g314"
     inkscape:groupmode="layer"
     inkscape:label="airplane-outline-vector-publicdomainvectors.org"
     transform="matrix(1.3333333,0,0,-1.3333333,0,800)"><g
       id="g316"><g
         id="g318"
         clip-path="url(#clipPath322)"><path
           d="m 570.427,271.658 c -0.554,0.186 -0.936,0.32 -1.102,0.422 -1.084,0.67 -6.72,7.358 -7.581,8.411 -5.363,7.517 -9.975,9.911 -10.677,10.166 -4.38,2.7 -10.146,4.664 -16.105,6.092 l -16.931,-9.417 z"
           style="fill:#ff697d;fill-opacity:1;fill-rule:nonzero;stroke:none"
           id="path324" /><path
           d="m 590.735,255.413 0.906,-5.547 c 0.198,2.083 -0.252,3.976 -0.906,5.547"
           style="fill:#ff3e7d;fill-opacity:1;fill-rule:nonzero;stroke:none"
           id="path326" /><path
           d="m 557.388,227.643 c 25.408,5.873 30.596,14.636 31.074,15.307 2.079,2.414 2.974,4.767 3.179,6.916 l -0.906,5.547 c -0.985,2.374 -2.431,4.019 -2.797,4.487 -0.959,1.264 -1.972,2.393 -3.009,3.406 l -59.517,-40.984 c 13.438,1.366 23.809,3.449 31.976,5.321"
           style="fill:#a43b7d;fill-opacity:1;fill-rule:nonzero;stroke:none"
           id="path328" /><path
           d="m 512.062,211.378 c -0.007,0.669 -0.006,1.295 0.009,1.758 l -2.935,-2.022 z"
           style="fill:#a43b7d;fill-opacity:1;fill-rule:nonzero;stroke:none"
           id="path330" /><path
           d="m 505.972,179.862 c 0.282,0.047 0.559,0.111 0.832,0.185 1.062,-0.587 2.267,-0.949 3.566,-0.949 4.108,0 7.435,3.325 7.435,7.43 0,4.107 -3.327,7.434 -7.435,7.434 -0.666,0 -1.302,-0.116 -1.916,-0.281 0.004,0.541 -0.01,1.729 -0.147,3.446 2.442,2.347 3.177,7.629 3.177,7.629 l 1.66,0.733 -0.991,2.013 c 0,0 -0.074,2.084 -0.091,3.876 l -2.926,-0.264 z"
           style="fill:#a4447d;fill-opacity:1;fill-rule:nonzero;stroke:none"
           id="path332" /><path
           d="m 509.136,211.114 2.935,2.022 c 0.011,0.294 0.027,0.523 0.049,0.654 0.641,0.51 1.311,4.661 1.311,4.661 0,0 0,-0.159 0.764,1.516 1.654,0.288 1.055,0.972 1.566,1.547 3.383,0.225 6.595,0.499 9.651,0.808 l 59.517,40.984 c -5.594,5.457 -11.919,7.483 -14.502,8.352 l -52.396,15.674 z"
           style="fill:#fc727d;fill-opacity:1;fill-rule:nonzero;stroke:none"
           id="path334" /><path
           d="m 534.962,296.749 c -7.125,1.707 -14.525,2.647 -20.167,3.159 l 3.236,-12.576 z"
           style="fill:#ff6879;fill-opacity:1;fill-rule:nonzero;stroke:none"
           id="path336" /><path
           d="m 518.031,287.332 -44.678,-22.238 35.783,-53.98 z"
           style="fill:#ffa37d;fill-opacity:1;fill-rule:nonzero;stroke:none"
           id="path338" /><path
           d="m 518.031,287.332 -3.236,12.576 c -5.594,0.509 -9.458,0.598 -9.601,0.598 -0.406,0 -4.321,7.135 -4.896,8.056 -0.574,0.922 -1.363,0.024 -1.363,0.024 0,0 1.248,-6.723 1.439,-7.776 -2.985,0.048 -7.816,0.064 -12.902,0.002 l -14.119,-35.718 z"
           style="fill:#ff9d7d;fill-opacity:1;fill-rule:nonzero;stroke:none"
           id="path340" /><path
           d="m 487.472,300.812 c -4.973,-0.062 -10.19,-0.198 -14.166,-0.45 -1.868,-0.119 -7.659,-0.388 -15.451,-0.733 l 15.498,-34.535 z"
           style="fill:#ff9e6f;fill-opacity:1;fill-rule:nonzero;stroke:none"
           id="path342" /><path
           d="m 456.362,189.594 c 8.131,-2.209 16.094,-2.752 22.896,-2.559 l -21.675,20.643 z"
           style="fill:#a4717d;fill-opacity:1;fill-rule:nonzero;stroke:none"
           id="path344" /><path
           d="m 457.583,207.678 21.675,-20.643 c 11.525,0.328 19.713,2.766 19.713,2.766 l 0.334,0.14 c -0.609,-1.009 -0.979,-2.178 -0.979,-3.443 0,-3.709 3.006,-6.716 6.715,-6.716 0.318,0 0.628,0.031 0.931,0.08 l 3.164,31.252 z"
           style="fill:#a4677d;fill-opacity:1;fill-rule:nonzero;stroke:none"
           id="path346" /><path
           d="m 509.136,211.114 -35.783,53.98 -15.77,-57.416 z"
           style="fill:#ba787d;fill-opacity:1;fill-rule:nonzero;stroke:none"
           id="path348" /><path
           d="m 420.028,298.013 c -15.351,-0.644 -29.211,-1.215 -33.954,-1.41 l 16.115,-44.247 z"
           style="fill:#ffbc65;fill-opacity:1;fill-rule:nonzero;stroke:none"
           id="path350" /><path
           d="m 473.353,265.094 -71.164,-12.738 55.394,-44.678 z"
           style="fill:#ffba7d;fill-opacity:1;fill-rule:nonzero;stroke:none"
           id="path352" /><path
           d="m 473.353,265.094 -15.498,34.535 c -10.532,-0.465 -24.721,-1.067 -37.827,-1.616 l -17.839,-45.657 z"
           style="fill:#ffb97d;fill-opacity:1;fill-rule:nonzero;stroke:none"
           id="path354" /><path
           d="m 447.108,191.827 c 0.154,-0.077 0.291,-0.141 0.403,-0.19 2.555,-0.83 4.055,-1.116 8.268,-1.884 0.195,-0.055 0.389,-0.106 0.583,-0.159 l 1.221,18.084 z"
           style="fill:#a4757d;fill-opacity:1;fill-rule:nonzero;stroke:none"
           id="path356" /><path
           d="m 389.31,184.669 3.107,-6.35 c -0.335,2.455 -1.459,4.66 -3.107,6.35"
           style="fill:#b88e7d;fill-opacity:1;fill-rule:nonzero;stroke:none"
           id="path358" /><path
           d="m 369.236,225.671 7.53,-15.381 1.157,-0.075 c 0,0 -0.067,-0.743 -0.174,-1.933 l 5.814,-11.878 c 0.081,0.299 0.168,0.627 0.265,0.976 0.703,0.897 1.756,2.939 2.523,4.025 0.765,1.084 7.405,2.361 9.001,3.127 1.596,0.767 1.596,4.087 1.596,6.703 2.554,-0.062 16.791,0.958 19.984,1.534 1.978,0 5.075,0.192 8.138,0.032 -2.233,-0.608 -2.713,-1.31 -3.159,-1.884 -3.193,-8.171 2.425,-10.98 2.425,-10.98 0,0 3.001,-0.065 3.449,-0.065 0.446,-0.063 11.045,-2.107 14.11,-2.683 1.478,-3.127 3.967,-4.732 5.213,-5.362 l 10.475,15.851 z"
           style="fill:#b88e7d;fill-opacity:1;fill-rule:nonzero;stroke:none"
           id="path360" /><path
           d="m 457.583,207.678 -55.394,44.678 -32.953,-26.685 z"
           style="fill:#ffb17d;fill-opacity:1;fill-rule:nonzero;stroke:none"
           id="path362" /><path
           d="m 402.189,252.356 -16.115,44.247 c -1.122,-0.046 -1.735,-0.072 -1.735,-0.072 -1.806,-0.058 -8.734,-0.351 -18.299,-0.765 l -17.425,-26.427 z"
           style="fill:#ffca7d;fill-opacity:1;fill-rule:nonzero;stroke:none"
           id="path364" /><path
           d="m 351.277,200.863 c 21.694,1.174 23.708,9.543 23.708,9.543 l 1.781,-0.116 -7.53,15.381 z"
           style="fill:#d5977d;fill-opacity:1;fill-rule:nonzero;stroke:none"
           id="path366" /><path
           d="m 376.326,192.275 c -1.297,-0.418 -1.581,-2.435 -1.643,-3.517 -0.793,0.178 -1.616,0.277 -2.463,0.277 -6.241,0 -11.3,-5.06 -11.3,-11.301 0,-6.24 5.059,-11.299 11.3,-11.299 1.449,0 2.831,0.283 4.105,0.779 1.421,-1.026 3.034,-1.736 4.898,-1.736 6.241,0 11.299,5.058 11.299,11.298 0,0.524 -0.036,1.038 -0.105,1.543 l -3.107,6.35 c -1.555,1.592 -3.575,2.727 -5.841,3.184 0.053,2.746 -2.482,4.613 -2.482,4.613 0,0 0.159,2.33 0.159,2.587 0,0.255 1.693,-0.288 1.853,-0.288 0.121,0 0.301,0.658 0.564,1.639 l -5.814,11.878 c -0.361,-3.998 -1.176,-13.054 -1.423,-16.007"
           style="fill:#d5977d;fill-opacity:1;fill-rule:nonzero;stroke:none"
           id="path368" /><path
           d="m 333.878,201.568 c 3.051,-0.413 5.268,-0.652 5.803,-0.673 4.386,-0.224 8.226,-0.213 11.596,-0.032 l 17.959,24.808 z"
           style="fill:#ffc57d;fill-opacity:1;fill-rule:nonzero;stroke:none"
           id="path370" /><path
           d="m 402.189,252.356 -53.574,16.983 20.621,-43.668 z"
           style="fill:#ffcd7d;fill-opacity:1;fill-rule:nonzero;stroke:none"
           id="path372" /><path
           d="m 366.04,295.766 c -5.507,-0.239 -11.888,-0.517 -18.67,-0.815 l 1.245,-25.612 z"
           style="fill:#ffb44d;fill-opacity:1;fill-rule:nonzero;stroke:none"
           id="path374" /><path
           d="M 348.615,269.339 286.348,248.92 369.236,225.671 Z"
           style="fill:#ffd27d;fill-opacity:1;fill-rule:nonzero;stroke:none"
           id="path376" /><path
           d="m 286.348,248.92 14.86,-38.316 c 2.354,-0.266 5.348,-0.621 7.125,-0.899 2.81,-3.896 4.405,-4.023 5.236,-4.279 5.989,-1.705 14.606,-3.085 20.309,-3.858 l 35.358,24.103 z"
           style="fill:#ffcf7d;fill-opacity:1;fill-rule:nonzero;stroke:none"
           id="path378" /><path
           d="m 320.233,293.756 c -19.776,-0.874 -37.902,-1.682 -43.84,-1.945 l 9.955,-42.891 z"
           style="fill:#ffab03;fill-opacity:1;fill-rule:nonzero;stroke:none"
           id="path380" /><path
           d="m 348.615,269.339 -1.245,25.612 c -8.719,-0.383 -18.099,-0.796 -27.137,-1.195 L 286.348,248.92 Z"
           style="fill:#ffc730;fill-opacity:1;fill-rule:nonzero;stroke:none"
           id="path382" /><path
           d="m 287.511,196.853 c -0.463,0.213 -0.94,0.403 -1.436,0.552 l 0.199,0.616 1.405,-0.224 z m -5.444,12.028 c 1.03,1.637 1.878,3.025 1.878,3.025 l 2.267,-0.127 -0.703,-6.574 2.458,-0.736 c 0,0 -0.127,-0.925 -0.447,-2.937 -1.801,-0.613 -2.523,-2.561 -2.812,-3.813 -0.622,0.107 -1.259,0.174 -1.912,0.174 -0.655,0 -1.296,-0.059 -1.921,-0.166 l -0.795,-7.436 23.65,-3.423 c -0.559,5.146 -4.576,9.245 -9.677,9.948 0.972,4.27 -2.192,4.589 -2.192,4.589 l 0.702,4.852 c 0,0 1.182,-0.128 1.374,-0.128 0.191,0 1.181,3.064 1.212,3.225 0.033,0.159 1.054,-0.035 1.15,-0.035 0.096,0 1.436,1.663 1.436,1.663 0,0 1.516,-0.159 3.473,-0.378 l -14.86,38.316 z"
           style="fill:#ffcd7d;fill-opacity:1;fill-rule:nonzero;stroke:none"
           id="path384" /><path
           d="m 295.87,174.845 c 4.595,1.434 7.93,5.722 7.93,10.79 0,0.417 -0.026,0.828 -0.07,1.233 l -23.65,3.423 z"
           style="fill:#ffc47d;fill-opacity:1;fill-rule:nonzero;stroke:none"
           id="path386" /><path
           d="m 276.833,176.994 c 1.73,-1.077 3.773,-1.702 5.963,-1.702 1.355,0 2.647,0.252 3.851,0.689 1.709,-1.038 3.707,-1.647 5.853,-1.647 1.174,0 2.306,0.179 3.37,0.511 l -15.79,15.446 z"
           style="fill:#ffbc7d;fill-opacity:1;fill-rule:nonzero;stroke:none"
           id="path388" /><path
           d="m 286.348,248.92 -9.955,42.891 c -1.32,-0.06 -2.04,-0.091 -2.04,-0.091 l -4.765,7.445 -1.509,-0.048 c 0,0 0.671,-2.393 1.724,-7.566 -2.474,-0.107 -21.77,-1.083 -38.214,-1.918 l -13.574,-21.507 z"
           style="fill:#ffa803;fill-opacity:1;fill-rule:nonzero;stroke:none"
           id="path390" /><path
           d="m 275.896,195.539 c -1.649,-1.273 -2.936,-2.99 -3.681,-4.975 l 7.865,-0.273 z"
           style="fill:#ffaa3f;fill-opacity:1;fill-rule:nonzero;stroke:none"
           id="path392" /><path
           d="m 204.816,217.119 c 21.087,-4.225 43.602,-5.39 58.375,-5.647 l -45.176,56.654 z"
           style="fill:#ffaa3f;fill-opacity:1;fill-rule:nonzero;stroke:none"
           id="path394" /><path
           d="m 280.875,197.727 c -1.853,-0.318 -3.552,-1.085 -4.979,-2.188 l 4.184,-5.248 z"
           style="fill:#ffc03d;fill-opacity:1;fill-rule:nonzero;stroke:none"
           id="path396" /><path
           d="m 218.015,268.126 45.176,-56.654 c 8.869,-0.155 14.949,0.017 16.254,0.051 -0.257,-0.638 -2.044,-7.757 -2.044,-7.757 0,0 0.447,-0.191 1.118,-0.094 0.387,0.258 2.138,2.967 3.548,5.209 l 4.281,40.039 z"
           style="fill:#ffc03d;fill-opacity:1;fill-rule:nonzero;stroke:none"
           id="path398" /><path
           d="m 272.215,190.564 c -0.464,-1.235 -0.72,-2.574 -0.72,-3.971 0,-4.052 2.134,-7.604 5.338,-9.599 l 3.247,13.297 z"
           style="fill:#ffb972;fill-opacity:1;fill-rule:nonzero;stroke:none"
           id="path400" /><path
           d="m 231.589,289.633 c -12.838,-0.652 -23.938,-1.217 -23.938,-1.217 l -2.466,4.429 -1.651,-0.286 0.67,-4.455 -0.46,-0.03 14.271,-19.948 z"
           style="fill:#ff8c03;fill-opacity:1;fill-rule:nonzero;stroke:none"
           id="path402" /><path
           d="m 144.224,268.53 32.642,-45.262 c 6.861,-1.538 16.049,-3.584 21.529,-4.752 2.119,-0.499 4.262,-0.964 6.421,-1.397 l 13.199,51.007 z"
           style="fill:#ff7503;fill-opacity:1;fill-rule:nonzero;stroke:none"
           id="path404" /><path
           d="m 218.015,268.126 -14.271,19.948 -8.414,-0.545 -0.448,0.383 c -16.664,2.407 -24.596,12.352 -26.738,15.095 l -23.92,-34.477 z"
           style="fill:#ff7d03;fill-opacity:1;fill-rule:nonzero;stroke:none"
           id="path406" /><path
           d="m 130.669,234.691 c 16.102,-4.388 33.281,-8.962 33.281,-8.962 l -2.297,-1.979 c 0,0 1.34,-0.383 2.841,-0.352 1.532,-0.416 3.414,1.884 3.414,1.884 0,0 3.829,-0.865 8.958,-2.014 l -32.642,45.262 z"
           style="fill:#ff3f03;fill-opacity:1;fill-rule:nonzero;stroke:none"
           id="path408" /><path
           d="m 144.224,268.53 23.92,34.477 c -0.132,0.167 -0.243,0.309 -0.331,0.42 -1.683,2.483 -5.4,7.903 -10.205,14.895 l -35.623,-3.698 z"
           style="fill:#ff6203;fill-opacity:1;fill-rule:nonzero;stroke:none"
           id="path410" /><path
           d="m 157.608,318.322 c -9.622,14.004 -23.609,34.313 -34.379,49.97 l -1.244,-53.668 z"
           style="fill:#ff4e03;fill-opacity:1;fill-rule:nonzero;stroke:none"
           id="path412" /><path
           d="m 123.229,368.292 c -1.86,2.705 -3.624,5.271 -5.252,7.641 L 86.554,328.799 c 0.531,-2.904 1.057,-5.784 1.569,-8.587 l 33.862,-5.588 z"
           style="fill:#ff3c03;fill-opacity:1;fill-rule:nonzero;stroke:none"
           id="path414" /><path
           d="M 121.985,314.624 93.273,291.853 c 0.157,-0.88 0.251,-1.43 0.275,-1.594 -0.394,0.054 -1.125,0.11 -2.074,0.167 l -7.102,-5.632 c 5.524,-1.497 10.98,-2.947 10.98,-2.947 0,0 0.477,-3.223 0.669,-4.628 -1.554,-0.207 -4.653,-0.777 -8.058,-1.45 l 56.261,-7.239 z"
           style="fill:#ff4c03;fill-opacity:1;fill-rule:nonzero;stroke:none"
           id="path416" /><path
           d="m 98.544,243.892 -1.565,-2.108 2.043,-0.541 c 0,0 2.522,0.702 4.436,1.181 2.21,-0.85 14.368,-4.233 27.211,-7.733 l 13.555,33.839 -56.261,7.239 c -3.82,-0.755 -8.026,-1.642 -10.874,-2.296 l 13.704,-27 c 4.504,-1.51 7.751,-2.581 7.751,-2.581"
           style="fill:#ff3d03;fill-opacity:1;fill-rule:nonzero;stroke:none"
           id="path418" /><path
           d="m 90.793,246.473 -13.704,27 c -0.789,-0.182 -1.473,-0.346 -2.017,-0.484 l -0.047,-21.131 c 5.144,-1.803 11.124,-3.828 15.768,-5.385"
           style="fill:#ff3b03;fill-opacity:1;fill-rule:nonzero;stroke:none"
           id="path420" /><path
           d="m 88.123,320.212 c 2.369,-12.972 4.424,-24.259 5.15,-28.359 l 28.712,22.771 z"
           style="fill:#ff4203;fill-opacity:1;fill-rule:nonzero;stroke:none"
           id="path422" /><path
           d="m 77.083,290.995 -0.595,-4.036 c 2.149,-0.605 5.025,-1.391 7.884,-2.165 l 7.102,5.632 c -3.756,0.222 -10.952,0.45 -14.391,0.569"
           style="fill:#ff4203;fill-opacity:1;fill-rule:nonzero;stroke:none"
           id="path424" /><path
           d="m 107.528,391.195 c -2.777,4.358 -6.367,4.981 -8.187,5.029 -1.658,-0.058 -5.916,-0.201 -10.442,-0.353 l -5.116,-51.924 c 0.901,-4.922 1.843,-10.07 2.771,-15.148 l 31.423,47.134 c -5.66,8.234 -9.689,14.112 -10.449,15.262"
           style="fill:#ff3b03;fill-opacity:1;fill-rule:nonzero;stroke:none"
           id="path426" /><path
           d="m 60.891,266.271 c -1.82,-5.077 -0.718,-8.622 -0.384,-9.338 1.006,-0.622 3.066,-1.053 4.358,-1.293 1.734,-0.771 5.62,-2.19 10.16,-3.782 l 0.047,21.131 c -0.595,-0.151 -1.022,-0.271 -1.227,-0.351 -1.677,-0.648 -3.649,-1.197 -4.48,-1.197 -3.518,0.407 -11.036,1.547 -18.999,2.788 l -18.394,-2.38 c 13.13,-2.531 27,-5.185 28.919,-5.578"
           style="fill:#ff3b03;fill-opacity:1;fill-rule:nonzero;stroke:none"
           id="path428" /><path
           d="m 74.602,395.394 0.095,-1.756 -0.702,-0.256 v -0.798 l 0.894,-0.256 1.245,-7.182 -0.495,-0.511 0.112,-0.924 0.861,-0.192 1.205,-7.239 -0.813,-0.289 -0.025,-1.123 c 0,0 1.182,0.063 1.199,-0.207 0.006,-0.112 2.572,-14.131 5.605,-30.714 l 5.116,51.924 c -6.843,-0.229 -14.297,-0.477 -14.297,-0.477"
           style="fill:#ff3b03;fill-opacity:1;fill-rule:nonzero;stroke:none"
           id="path430" /><path
           d="m 75.176,291.073 c -0.735,0.32 -13.983,7.628 -14.812,8.075 -0.83,0.449 -2.904,0.066 -3.128,-0.509 0.288,-0.449 5.363,-6.098 5.458,-6.353 0.097,-0.256 0.16,-1.629 0.16,-2.747 -0.079,-0.599 -0.308,-2.272 -0.553,-4.044 l 4.535,-2.863 c 2.276,2.605 5.157,4.744 6.408,5.28 0.505,-0.172 1.683,-0.515 3.244,-0.953 l 0.595,4.036 c -1.086,0.038 -1.798,0.066 -1.907,0.078"
           style="fill:#ff3b03;fill-opacity:1;fill-rule:nonzero;stroke:none"
           id="path432" /><path
           d="m 31.972,271.849 18.394,2.38 c -7.06,1.098 -14.471,2.275 -19.753,3.085 -4.185,0.642 -7.883,1.045 -11.024,1.285 l -1.113,-4.14 c 3.985,-0.775 8.691,-1.685 13.496,-2.61"
           style="fill:#ff3b03;fill-opacity:1;fill-rule:nonzero;stroke:none"
           id="path434" /><path
           d="m 61.561,280.156 c 0,0 2.108,-0.336 3.256,-0.288 0.545,0.945 1.247,1.882 2.019,2.764 l -4.535,2.863 c -0.355,-2.567 -0.74,-5.339 -0.74,-5.339"
           style="fill:#ff3b03;fill-opacity:1;fill-rule:nonzero;stroke:none"
           id="path436" /><path
           d="m 18.476,274.459 1.113,4.14 c -1.629,0.124 -3.109,0.205 -4.429,0.252 l 0.927,-3.925 c 0.762,-0.15 1.559,-0.305 2.389,-0.467"
           style="fill:#ff3b03;fill-opacity:1;fill-rule:nonzero;stroke:none"
           id="path438" /><path
           d="m 16.087,274.926 -0.927,3.925 c -2.969,0.105 -5.134,0.043 -6.381,-0.068 -2.873,-0.256 -8.173,-0.958 -7.534,-1.212 0.639,-0.257 4.405,-0.83 6.193,-0.895 0.198,-0.082 3.62,-0.768 8.649,-1.75"
           style="fill:#ff3b03;fill-opacity:1;fill-rule:nonzero;stroke:none"
           id="path440" /></g></g></g></svg>
