<?xml version="1.0" encoding="UTF-8" standalone="no"?>
<!-- Created with Inkscape (http://www.inkscape.org/) -->

<svg
   version="1.1"
   id="svg9"
   xml:space="preserve"
   width="800"
   height="800"
   viewBox="0 0 800 800"
   sodipodi:docname="airplane-outline-vector-2-publicdomainvectors.org.svg"
   inkscape:version="1.1.2 (b8e25be833, 2022-02-05)"
   xmlns:inkscape="http://www.inkscape.org/namespaces/inkscape"
   xmlns:sodipodi="http://sodipodi.sourceforge.net/DTD/sodipodi-0.dtd"
   xmlns="http://www.w3.org/2000/svg"
   xmlns:svg="http://www.w3.org/2000/svg"><defs
     id="defs13"><clipPath
       clipPathUnits="userSpaceOnUse"
       id="clipPath23"><path
         d="M 0,600 H 600 V 0 H 0 Z"
         id="path21" /></clipPath></defs><sodipodi:namedview
     id="namedview11"
     pagecolor="#ffffff"
     bordercolor="#666666"
     borderopacity="1.0"
     inkscape:pageshadow="2"
     inkscape:pageopacity="0.0"
     inkscape:pagecheckerboard="0"
     showgrid="false"
     inkscape:zoom="1.01125"
     inkscape:cx="400"
     inkscape:cy="400"
     inkscape:window-width="1920"
     inkscape:window-height="1018"
     inkscape:window-x="-8"
     inkscape:window-y="-8"
     inkscape:window-maximized="1"
     inkscape:current-layer="g15" /><g
     id="g15"
     inkscape:groupmode="layer"
     inkscape:label="airplane-outline-vector-2-publicdomainvectors.org"
     transform="matrix(1.3333333,0,0,-1.3333333,0,800)"><g
       id="g17"><g
         id="g19"
         clip-path="url(#clipPath23)"><path
           d="m 559.803,202.442 16.678,-6.42 c -5.905,4.336 -10.795,5.945 -12.387,6.399 -0.198,0 -1.736,0.009 -4.291,0.021"
           style="fill:#0056c8;fill-opacity:1;fill-rule:nonzero;stroke:none"
           id="path25" /><path
           d="m 519.373,314.208 c 1.819,-3.131 5.002,-2.501 5.389,-2.571 0.384,-0.07 1.153,-0.246 1.539,-0.105 0.558,0.316 -1.366,2.519 -2.975,3.639 0.21,-0.141 0.315,0.035 0.524,0.49 -3.991,3.413 -8.454,6.083 -11.438,7.696 l -1.239,-10.622 c 4.472,0.82 7.57,1.378 8.2,1.473"
           style="fill:#5898c4;fill-opacity:1;fill-rule:nonzero;stroke:none"
           id="path27" /><path
           d="m 501.136,202.771 -0.653,-25.852 c 31.484,6.171 75.972,14.928 80.234,15.634 -1.447,1.315 -2.868,2.465 -4.236,3.469 l -16.678,6.42 c -10.131,0.055 -36.285,0.203 -58.667,0.329"
           style="fill:#0063c3;fill-opacity:1;fill-rule:nonzero;stroke:none"
           id="path29" /><path
           d="m 511.173,312.735 1.239,10.622 c -2.064,1.117 -3.421,1.727 -3.421,1.727 -11.899,5.228 -18.57,5.089 -18.314,2.935 -2.823,-0.353 -9.137,-0.879 -17.819,-1.517 l 12.333,-18.604 c 9.277,1.75 19.205,3.594 25.982,4.837"
           style="fill:#6dc9cd;fill-opacity:1;fill-rule:nonzero;stroke:none"
           id="path31" /><path
           d="m 440.271,159.949 c 5.334,-1.189 13.387,-2.904 16.603,-3.438 4.829,-0.805 6.683,3.287 7.769,4.198 1.294,1.153 2.834,4.199 4.162,7.909 3.115,-0.069 0.806,1.646 0.806,1.646 0,0 0.28,0.293 0.28,0.712 1.69,0.307 6.261,1.189 12.635,2.432 l -33.448,47.784 z"
           style="fill:#0074ce;fill-opacity:1;fill-rule:nonzero;stroke:none"
           id="path33" /><path
           d="m 464.291,202.981 c 0,0 4.205,8.781 9.528,19.915 l -24.741,-1.704 33.448,-47.784 c 5.037,0.982 11.196,2.187 17.957,3.511 l 0.653,25.852 c -19.915,0.114 -36.845,0.21 -36.845,0.21"
           style="fill:#007fd1;fill-opacity:1;fill-rule:nonzero;stroke:none"
           id="path35" /><path
           d="m 449.078,221.192 24.741,1.704 c 2.947,6.165 6.235,13.049 9.342,19.566 l -30.675,29.214 z"
           style="fill:#0097de;fill-opacity:1;fill-rule:nonzero;stroke:none"
           id="path37" /><path
           d="m 483.161,242.462 c 6.341,13.301 11.925,25.066 12.299,26.028 0.455,1.174 1.759,3.885 2.92,6.246 l -45.894,-3.06 z"
           style="fill:#008dde;fill-opacity:1;fill-rule:nonzero;stroke:none"
           id="path39" /><path
           d="m 498.38,274.736 c 1.1,2.236 2.072,4.157 2.072,4.157 0,0 -8.258,7.186 -14.464,11.572 -6.206,4.387 -6.626,2.94 -8.399,2.1 -1.986,-1.215 -11.898,-7.589 -23.496,-15.038 l -1.607,-5.851 z"
           style="fill:#169ee2;fill-opacity:1;fill-rule:nonzero;stroke:none"
           id="path41" /><path
           d="m 485.191,307.898 -12.333,18.604 c -1.717,-0.127 -3.528,-0.257 -5.422,-0.392 l -6.291,-22.908 c 2.583,0.607 12.836,2.583 24.046,4.696"
           style="fill:#169ee2;fill-opacity:1;fill-rule:nonzero;stroke:none"
           id="path43" /><path
           d="m 395.171,321.44 c -0.661,-0.04 -1.323,-0.081 -1.984,-0.122 l 0.934,-2.567 z"
           style="fill:#dae262;fill-opacity:1;fill-rule:nonzero;stroke:none"
           id="path45" /><path
           d="m 404.346,198.827 31.204,-37.783 c 0.722,-0.19 2.481,-0.595 4.721,-1.095 l 8.807,61.243 z"
           style="fill:#008ad9;fill-opacity:1;fill-rule:nonzero;stroke:none"
           id="path47" /><path
           d="m 454.093,277.527 c -1.618,-1.038 -3.269,-2.098 -4.934,-3.168 l 3.327,-2.683 z"
           style="fill:#74e0e0;fill-opacity:1;fill-rule:nonzero;stroke:none"
           id="path49" /><path
           d="m 425.514,293.432 c 7.283,1.419 21.106,4.242 21.106,4.242 l -1.4,2.274 c 0,0 10.906,2.275 13.614,2.741 2.005,-0.582 2.239,-0.115 2.029,0.445 0.08,0.02 0.175,0.043 0.282,0.068 l 6.291,22.908 c -13.679,-0.972 -31.739,-2.147 -50.908,-3.348 l -22.407,-4.011 z"
           style="fill:#74e0e0;fill-opacity:1;fill-rule:nonzero;stroke:none"
           id="path51" /><path
           d="m 416.528,322.762 c -7.024,-0.44 -14.196,-0.884 -21.357,-1.322 l -1.05,-2.689 z"
           style="fill:#afdf7b;fill-opacity:1;fill-rule:nonzero;stroke:none"
           id="path53" /><path
           d="m 404.346,198.827 44.732,22.365 3.408,50.484 z"
           style="fill:#009be2;fill-opacity:1;fill-rule:nonzero;stroke:none"
           id="path55" /><path
           d="m 365.489,278.196 c 4.352,-2.506 9.959,-5.587 10.62,-5.962 1.014,-0.579 1.503,-0.245 1.401,0.103 0.032,1.401 -4.831,8.68 -6.3,10.919 0.854,0.134 6.241,1.142 12.765,2.374 l -24.575,5.004 z"
           style="fill:#14b4ec;fill-opacity:1;fill-rule:nonzero;stroke:none"
           id="path57" /><path
           d="m 452.486,271.676 -5.699,1.161 c -16.002,-10.267 -32.722,-20.951 -35.477,-22.439 -5.247,-2.835 -6.648,-2.345 -8.678,-2.134 -3.113,0.293 -17.086,4.372 -25.948,7.067 l 27.662,-56.504 z"
           style="fill:#14b4ec;fill-opacity:1;fill-rule:nonzero;stroke:none"
           id="path59" /><path
           d="m 449.159,274.359 c -0.788,-0.505 -1.58,-1.013 -2.372,-1.522 l 5.699,-1.161 z"
           style="fill:#67d7ef;fill-opacity:1;fill-rule:nonzero;stroke:none"
           id="path61" /><path
           d="m 359.4,290.634 24.575,-5.004 c 10.561,1.993 24.105,4.572 26.24,4.975 0.467,-0.605 4.224,-3.055 5.856,-4.293 0.071,-2.775 2.94,-1.656 2.94,-1.656 0,0 3.172,-1.657 5.738,-3.01 2.87,-1.375 2.73,-1.026 2.73,-0.698 -0.35,1.515 -4.666,9.283 -6.114,11.71 0.556,0.082 2.092,0.372 4.149,0.774 l -31.393,25.319 z"
           style="fill:#67d7ef;fill-opacity:1;fill-rule:nonzero;stroke:none"
           id="path63" /><path
           d="m 400.088,149.399 c 10.616,3.308 32.225,10.734 35.159,11.729 0.058,-0.019 0.161,-0.048 0.303,-0.084 l -31.204,37.783 z"
           style="fill:#0074d4;fill-opacity:1;fill-rule:nonzero;stroke:none"
           id="path65" /><path
           d="m 393.187,321.318 c -2.008,-0.122 -4.012,-0.244 -6.011,-0.365 l 6.945,-2.202 z"
           style="fill:#dcf07c;fill-opacity:1;fill-rule:nonzero;stroke:none"
           id="path67" /><path
           d="m 404.346,198.827 -27.662,56.504 c -3.885,1.181 -6.789,2.097 -7.365,2.311 -0.84,0.629 -15.605,10.615 -16.633,11.267 -0.507,0.323 -2.79,2.774 -5.143,5.346 l -42.886,-59.238 z"
           style="fill:#31bded;fill-opacity:1;fill-rule:nonzero;stroke:none"
           id="path69" /><path
           d="m 353.063,281.88 1.115,-1.912 c 0,0 3.548,0.745 6.347,1.261 0.651,-0.506 2.627,-1.686 4.964,-3.033 l -6.089,12.438 z"
           style="fill:#31bded;fill-opacity:1;fill-rule:nonzero;stroke:none"
           id="path71" /><path
           d="m 377.158,175.725 c 7.667,-2.454 12.34,-3.727 12.34,-3.727 0,0 -7.371,-11.356 -10.03,-14.788 3.709,-5.667 13.226,-8.68 15.047,-9.378 0.717,0.103 2.761,0.691 5.573,1.567 l 4.258,49.428 z"
           style="fill:#0069d5;fill-opacity:1;fill-rule:nonzero;stroke:none"
           id="path73" /><path
           d="m 304.657,215.017 1.431,-9.713 c 26.633,-14.396 55.237,-24.511 71.07,-29.579 l 27.188,23.102 z"
           style="fill:#0181dd;fill-opacity:1;fill-rule:nonzero;stroke:none"
           id="path75" /><path
           d="m 304.657,215.017 42.886,59.238 c -1.75,1.911 -3.539,3.89 -4.67,5.112 l -45.032,-30.696 z"
           style="fill:#8bebdb;fill-opacity:1;fill-rule:nonzero;stroke:none"
           id="path77" /><path
           d="m 345.228,280.974 c 3.229,0.534 7.643,1.233 7.643,1.233 l 0.192,-0.327 6.337,8.754 z"
           style="fill:#8bebdb;fill-opacity:1;fill-rule:nonzero;stroke:none"
           id="path79" /><path
           d="m 394.121,318.751 -6.945,2.202 c -14.379,-0.873 -28.466,-1.711 -40.94,-2.441 L 359.4,290.634 Z"
           style="fill:#b7f3bb;fill-opacity:1;fill-rule:nonzero;stroke:none"
           id="path81" /><path
           d="m 359.4,290.634 -13.164,27.878 c -25.333,-1.483 -44.016,-2.524 -44.997,-2.518 -1.68,2.606 -2.625,1.469 -2.625,1.469 0,0 -0.845,-0.028 -1.451,0.112 -0.167,0.111 -3.162,2.068 -5.915,3.845 l -19.182,-6.29 z"
           style="fill:#d8f890;fill-opacity:1;fill-rule:nonzero;stroke:none"
           id="path83" /><path
           d="m 272.066,315.13 25.775,-66.459 45.032,30.696 c -0.43,0.464 -0.765,0.821 -0.966,1.022 0.133,0.049 1.548,0.292 3.321,0.585 l 14.172,9.66 z"
           style="fill:#c5f5c1;fill-opacity:1;fill-rule:nonzero;stroke:none"
           id="path85" /><path
           d="m 299.866,208.768 c 2.057,-1.182 4.133,-2.336 6.222,-3.464 l -1.431,9.713 z"
           style="fill:#6cb0c4;fill-opacity:1;fill-rule:nonzero;stroke:none"
           id="path87" /><path
           d="m 281.441,327.534 c -1.114,0.707 -2.026,1.306 -2.336,1.563 -0.979,0.888 -4.618,4.201 -9.238,7.771 -1.178,0.89 -2.317,1.709 -3.419,2.467 l 5.618,-24.205 z"
           style="fill:#ffd100;fill-opacity:1;fill-rule:nonzero;stroke:none"
           id="path89" /><path
           d="m 291.248,321.42 c -1.858,1.201 -3.607,2.319 -4.303,2.734 -1.091,0.648 -3.594,2.17 -5.504,3.38 l -9.375,-12.404 z"
           style="fill:#f9ed2d;fill-opacity:1;fill-rule:nonzero;stroke:none"
           id="path91" /><path
           d="m 272.066,315.13 -6.603,-61.773 32.378,-4.686 z"
           style="fill:#cbf387;fill-opacity:1;fill-rule:nonzero;stroke:none"
           id="path93" /><path
           d="m 292.562,213.128 c 2.398,-1.49 4.837,-2.944 7.304,-4.36 l 4.791,6.249 z"
           style="fill:#8bcfa3;fill-opacity:1;fill-rule:nonzero;stroke:none"
           id="path95" /><path
           d="m 265.463,253.357 39.194,-38.34 -6.816,33.654 z"
           style="fill:#96eaa2;fill-opacity:1;fill-rule:nonzero;stroke:none"
           id="path97" /><path
           d="m 265.463,253.357 -4.926,-20.168 c 0.811,-0.271 1.534,-0.508 2.144,-0.718 1.494,-0.468 14.979,-9.705 20.252,-13.392 1.91,-4.713 2.33,-1.68 2.191,-1.119 2.425,-1.651 4.909,-3.262 7.438,-4.832 l 12.095,1.889 z"
           style="fill:#9ae292;fill-opacity:1;fill-rule:nonzero;stroke:none"
           id="path99" /><path
           d="m 272.066,315.13 -5.618,24.205 c -15.718,10.815 -23.775,8.758 -27.503,7.579 -1.583,1.392 -10.404,7.461 -21.955,15.262 l -16.921,-26.809 z"
           style="fill:#ffce00;fill-opacity:1;fill-rule:nonzero;stroke:none"
           id="path101" /><path
           d="m 179.62,256.34 85.843,-2.983 -65.394,82.01 z"
           style="fill:#f0d03c;fill-opacity:1;fill-rule:nonzero;stroke:none"
           id="path103" /><path
           d="m 200.069,335.367 65.394,-82.01 6.603,61.773 z"
           style="fill:#f6e63a;fill-opacity:1;fill-rule:nonzero;stroke:none"
           id="path105" /><path
           d="m 179.62,256.34 21.128,-13.944 4.31,0.43 1.027,-0.651 c 5.039,0.186 24.356,2.937 24.356,2.937 0,0 0.465,0.047 2.613,-1.305 3.359,-4.153 4.806,-2.427 4.806,-2.427 0,0 8.306,-2.845 12.038,-3.825 4.011,-2.095 7.853,-3.434 10.639,-4.366 l 4.926,20.168 z"
           style="fill:#c7df6f;fill-opacity:1;fill-rule:nonzero;stroke:none"
           id="path107" /><path
           d="m 200.069,335.367 16.921,26.809 c -14.185,9.579 -32.486,21.767 -46.559,31.11 l -9.981,-2.537 z"
           style="fill:#feb200;fill-opacity:1;fill-rule:nonzero;stroke:none"
           id="path109" /><path
           d="m 170.79,231.027 c 0.731,0.28 1.409,0.535 2.003,0.753 3.081,-2.517 12.808,-8.013 13.789,-8.466 1.82,0.314 -5.355,11.024 -5.459,11.336 -0.104,0.316 2.065,1.262 6.473,2.624 3.22,-3.289 11.725,-6.683 14.452,-7.661 2.73,-0.981 4.549,-0.642 7.302,-0.269 2.848,0.327 -9.424,12.969 -9.424,12.969 l 0.822,0.083 -21.128,13.944 z"
           style="fill:#d3bf53;fill-opacity:1;fill-rule:nonzero;stroke:none"
           id="path111" /><path
           d="m 170.431,393.286 c -2.429,1.613 -4.731,3.14 -6.865,4.554 l -3.116,-7.091 z"
           style="fill:#fe9400;fill-opacity:1;fill-rule:nonzero;stroke:none"
           id="path113" /><path
           d="m 200.069,335.367 -77.749,0.425 11.784,-16.34 c 8.552,-5.604 14.132,-9.11 14.173,-9.11 0.14,0 0.28,-1.306 0.419,-1.492 0.14,-0.187 1.726,-0.702 1.726,-0.702 l 1.912,-2.938 c 0,0 -2.066,-4.022 -3.267,-6.505 L 179.62,256.34 Z"
           style="fill:#fb9b00;fill-opacity:1;fill-rule:nonzero;stroke:none"
           id="path115" /><path
           d="m 122.32,335.792 77.749,-0.425 -39.619,55.382 z"
           style="fill:#ffa300;fill-opacity:1;fill-rule:nonzero;stroke:none"
           id="path117" /><path
           d="m 163.566,397.84 c -8.836,5.859 -14.778,9.785 -14.778,9.785 -2.732,1.833 -5.417,3.572 -8.054,5.224 l 19.716,-22.1 z"
           style="fill:#fd7700;fill-opacity:1;fill-rule:nonzero;stroke:none"
           id="path119" /><path
           d="m 149.067,298.705 c -0.34,-0.704 -0.61,-1.285 -0.745,-1.614 -0.606,-1.633 -2.658,-10.124 -2.658,-10.124 l -12.925,8.816 c 0,0 0.233,0 0.467,0.469 -6.534,4.572 -9.402,4.642 -9.402,4.642 0,0 -4.969,3.36 -6.299,4.128 -2.198,1.451 -4.248,2.556 -6.154,3.384 L 95.593,269.067 c 4.596,-3.61 9.355,-6.699 13.336,-9.106 l 70.691,-3.621 z"
           style="fill:#f56500;fill-opacity:1;fill-rule:nonzero;stroke:none"
           id="path121" /><path
           d="m 119.632,329.08 c 5.341,-3.607 10.266,-6.871 14.472,-9.628 l -11.784,16.34 z"
           style="fill:#f56500;fill-opacity:1;fill-rule:nonzero;stroke:none"
           id="path123" /><path
           d="m 108.929,259.961 c 3.584,-2.167 6.539,-3.781 8.178,-4.723 -1.09,-0.948 -3.845,-3.483 -7.343,-6.737 l 37.519,-26.431 c 0.271,0.118 0.438,0.192 0.438,0.192 0,0 2.904,-2.028 3.639,-2.66 -0.087,-0.081 -0.159,-0.164 -0.225,-0.247 l 2.625,-1.848 c 0.155,0.095 0.306,0.2 0.452,0.313 1.296,-1.401 7.525,-4.585 7.84,-4.55 1.224,1.225 -5.705,12.002 -5.705,12.002 0,0 8.841,3.613 14.443,5.755 l 8.83,25.313 z"
           style="fill:#e07000;fill-opacity:1;fill-rule:nonzero;stroke:none"
           id="path125" /><path
           d="m 98.89,384.358 23.43,-48.566 38.13,54.957 z"
           style="fill:#ff8800;fill-opacity:1;fill-rule:nonzero;stroke:none"
           id="path127" /><path
           d="m 160.45,390.749 -19.716,22.1 c -15.775,9.887 -29.73,16.593 -40.695,21.055 L 98.89,384.358 Z"
           style="fill:#fd7400;fill-opacity:1;fill-rule:nonzero;stroke:none"
           id="path129" /><path
           d="m 93.579,233.325 0.907,-19.282 c 1.85,-1.179 3.554,-2.122 4.03,-2.382 0.979,-0.538 2.892,-1.541 3.918,-2.473 1.611,-1.704 3.506,-3.145 4.013,-3.145 0.506,0 1.101,-0.297 1.908,-0.56 0.803,-0.261 0.402,0.874 -0.14,1.506 -0.108,1.014 -0.626,1.731 -1.138,2.71 0.652,0.236 22.361,8.697 25.651,9.888 1.905,-0.929 1.269,0.495 1.269,0.495 0,0 5.438,2.077 5.647,2.006 0.21,-0.07 2.334,-2.03 2.542,-2.101 0.173,-0.055 3.819,1.525 5.097,2.083 l -37.519,26.431 c -4.78,-4.447 -10.951,-10.237 -16.185,-15.176"
           style="fill:#d54200;fill-opacity:1;fill-rule:nonzero;stroke:none"
           id="path131" /><path
           d="m 151.343,217.188 c 0.705,-0.425 1.606,-0.185 2.417,0.319 l -2.625,1.848 c -0.763,-0.955 -0.146,-1.91 0.208,-2.167"
           style="fill:#d54200;fill-opacity:1;fill-rule:nonzero;stroke:none"
           id="path133" /><path
           d="m 98.89,384.358 1.149,49.546 c -4.699,1.912 -8.849,3.413 -12.356,4.575 L 56.288,391.388 Z"
           style="fill:#fa6200;fill-opacity:1;fill-rule:nonzero;stroke:none"
           id="path135" /><path
           d="M 98.89,384.358 72.288,363.26 c 10.648,-8.461 23.02,-17.406 34.65,-25.489 l 15.382,-1.979 z"
           style="fill:#ff7200;fill-opacity:1;fill-rule:nonzero;stroke:none"
           id="path137" /><path
           d="m 106.938,337.771 c 4.38,-3.044 8.655,-5.966 12.694,-8.691 l 2.688,6.712 z"
           style="fill:#fc6300;fill-opacity:1;fill-rule:nonzero;stroke:none"
           id="path139" /><path
           d="m 91.819,306.702 c -15.677,-13.999 -9.146,-24.308 -7.186,-27.2 3.126,-3.797 6.982,-7.311 10.96,-10.435 l 15.758,39.339 c -12.536,5.452 -18.803,-1.156 -19.532,-1.704"
           style="fill:#fc6300;fill-opacity:1;fill-rule:nonzero;stroke:none"
           id="path141" /><path
           d="m 82.791,223.021 c 0,-0.209 1.797,-0.513 2.987,-0.748 1.143,-0.371 2.028,-2.261 3.616,-4.221 1.007,-1.248 3.132,-2.76 5.092,-4.009 l -0.907,19.282 C 87.566,227.652 82.791,223.104 82.791,223.021"
           style="fill:#db2f00;fill-opacity:1;fill-rule:nonzero;stroke:none"
           id="path143" /><path
           d="m 56.288,391.388 -1.879,-12.739 c 0.635,-0.584 1.262,-1.155 1.877,-1.711 4.48,-4.239 9.964,-8.88 16.002,-13.678 l 26.602,21.098 z"
           style="fill:#fa6800;fill-opacity:1;fill-rule:nonzero;stroke:none"
           id="path145" /><path
           d="m 87.683,438.479 c -6.98,2.313 -11.421,3.29 -12.592,3.509 -5.869,0.828 -10.291,1.236 -13.684,1.36 l -5.119,-51.96 z"
           style="fill:#f64d00;fill-opacity:1;fill-rule:nonzero;stroke:none"
           id="path147" /><path
           d="m 30.242,407.157 c 4.369,-7.192 9.349,-13.395 14.309,-18.747 l 11.737,2.978 z"
           style="fill:#e94c00;fill-opacity:1;fill-rule:nonzero;stroke:none"
           id="path149" /><path
           d="m 61.407,443.348 c -9.229,0.338 -10.836,-1.424 -13.19,-2.55 -15.257,1.61 -22.047,-0.14 -22.606,-0.489 -14.978,-3.64 -4.759,-16.867 3.36,-31.005 0.416,-0.726 0.842,-1.44 1.271,-2.147 l 26.046,-15.769 z"
           style="fill:#ed4100;fill-opacity:1;fill-rule:nonzero;stroke:none"
           id="path151" /><path
           d="m 44.551,388.41 c 3.363,-3.63 6.715,-6.869 9.858,-9.761 l 1.879,12.739 z"
           style="fill:#f55e00;fill-opacity:1;fill-rule:nonzero;stroke:none"
           id="path153" /></g></g></g></svg>
