<?xml version="1.0" encoding="UTF-8" standalone="no"?>
<!-- Created with Inkscape (http://www.inkscape.org/) -->

<svg
   version="1.1"
   id="svg2349"
   xml:space="preserve"
   width="1066.6667"
   height="1066.6667"
   viewBox="0 0 1066.6667 1066.6667"
   sodipodi:docname="locomotive-silhouette-publicdomainvectors.org.svg"
   inkscape:version="1.1.2 (b8e25be833, 2022-02-05)"
   xmlns:inkscape="http://www.inkscape.org/namespaces/inkscape"
   xmlns:sodipodi="http://sodipodi.sourceforge.net/DTD/sodipodi-0.dtd"
   xmlns="http://www.w3.org/2000/svg"
   xmlns:svg="http://www.w3.org/2000/svg"><defs
     id="defs2353"><clipPath
       clipPathUnits="userSpaceOnUse"
       id="clipPath2363"><path
         d="M 0,800 H 800 V 0 H 0 Z"
         id="path2361" /></clipPath></defs><sodipodi:namedview
     id="namedview2351"
     pagecolor="#ffffff"
     bordercolor="#666666"
     borderopacity="1.0"
     inkscape:pageshadow="2"
     inkscape:pageopacity="0.0"
     inkscape:pagecheckerboard="0"
     showgrid="false"
     inkscape:zoom="0.77906244"
     inkscape:cx="533.33337"
     inkscape:cy="533.33337"
     inkscape:window-width="1920"
     inkscape:window-height="1018"
     inkscape:window-x="-8"
     inkscape:window-y="-8"
     inkscape:window-maximized="1"
     inkscape:current-layer="g2355" /><g
     id="g2355"
     inkscape:groupmode="layer"
     inkscape:label="locomotive-silhouette-publicdomainvectors.org"
     transform="matrix(1.3333333,0,0,-1.3333333,0,1066.6667)"><g
       id="g2357"><g
         id="g2359"
         clip-path="url(#clipPath2363)"><path
           d="m 356.464,742.796 v 0 h 0.006 z"
           style="fill:#dcf07e;fill-opacity:1;fill-rule:nonzero;stroke:none"
           id="path2365" /><path
           d="m 394.606,732.768 c -11.588,6.346 -24.68,9.886 -38.142,10.028 -9.869,0.108 -19.979,-1.648 -29.8,-5.422 -5.206,-2.361 -10.087,-5.173 -14.618,-8.366 l 67.302,-44.379 z"
           style="fill:#dcf07e;fill-opacity:1;fill-rule:nonzero;stroke:none"
           id="path2367" /><path
           d="m 423.881,705.659 c -7.459,11.486 -17.605,20.719 -29.275,27.109 l -15.258,-48.139 z"
           style="fill:#b8f3bc;fill-opacity:1;fill-rule:nonzero;stroke:none"
           id="path2369" /><path
           d="m 312.046,729.008 c -17.133,-12.07 -29.237,-29.639 -34.714,-49.338 l 102.016,4.959 z"
           style="fill:#f2da4d;fill-opacity:1;fill-rule:nonzero;stroke:none"
           id="path2371" /><path
           d="m 417.656,567.808 30.448,108.556 c -4.213,2.599 -8.858,4.612 -13.837,5.907 -2.288,8.542 -5.838,16.383 -10.386,23.388 l -44.533,-21.03 z"
           style="fill:#d8f892;fill-opacity:1;fill-rule:nonzero;stroke:none"
           id="path2373" /><path
           d="m 449.142,580.019 c 3.632,4.076 6.786,8.428 9.579,13.136 5.459,8.633 9.51,18.137 12.156,27.822 0.878,4.052 1.37,7.923 1.37,12.155 0,17.925 -9.437,34.16 -24.143,43.232 L 417.656,567.808 Z"
           style="fill:#c6f5c2;fill-opacity:1;fill-rule:nonzero;stroke:none"
           id="path2375" /><path
           d="M 417.656,567.808 276.118,674.78 c -2.917,-13.345 -2.836,-27.509 0.722,-41.498 -19.731,-21.834 -26.283,-52.812 -17.121,-80.634 -3.872,1.059 -7.743,1.059 -11.615,0 -0.255,-0.045 -0.508,-0.098 -0.763,-0.147 l -4.538,-25.277 z"
           style="fill:#ffd100;fill-opacity:1;fill-rule:nonzero;stroke:none"
           id="path2377" /><path
           d="M 379.348,684.629 277.332,679.67 c -0.449,-1.616 -0.854,-3.247 -1.214,-4.89 L 417.656,567.808 Z"
           style="fill:#f9ed30;fill-opacity:1;fill-rule:nonzero;stroke:none"
           id="path2379" /><path
           d="m 247.341,552.501 c -4.278,-0.81 -8.446,-1.993 -12.459,-3.525 l 7.921,-21.752 z"
           style="fill:#fd9d00;fill-opacity:1;fill-rule:nonzero;stroke:none"
           id="path2381" /><path
           d="m 234.882,548.976 c -10.222,-3.9 -19.442,-10.055 -26.938,-18.053 l 34.859,-3.699 z"
           style="fill:#ff9300;fill-opacity:1;fill-rule:nonzero;stroke:none"
           id="path2383" /><path
           d="m 434.74,565.982 c 0.909,0.703 1.798,1.433 2.664,2.188 3.343,3.163 6.553,6.132 9.547,9.475 0.752,0.779 1.477,1.573 2.191,2.374 l -31.486,-12.211 z"
           style="fill:#ccf389;fill-opacity:1;fill-rule:nonzero;stroke:none"
           id="path2385" /><path
           d="m 242.803,527.224 65.382,-41.266 c 11.858,6.216 21.722,16.331 27.49,29.394 32.752,-12.144 68.846,6.697 77.659,40.507 0.346,0.074 0.687,0.159 1.031,0.241 l 3.291,11.708 z"
           style="fill:#ffce00;fill-opacity:1;fill-rule:nonzero;stroke:none"
           id="path2387" /><path
           d="m 414.365,556.1 c 7.444,1.774 14.361,5.229 20.375,9.882 l -17.084,1.826 z"
           style="fill:#f6e63d;fill-opacity:1;fill-rule:nonzero;stroke:none"
           id="path2389" /><path
           d="m 158.195,468.507 c -10.314,-4.871 -19.306,-11.808 -26.547,-20.284 l 32.262,-26.821 z"
           style="fill:#fb6800;fill-opacity:1;fill-rule:nonzero;stroke:none"
           id="path2391" /><path
           d="m 528.12,434.724 v -22.771 l 15.029,22.771 z"
           style="fill:#c7df71;fill-opacity:1;fill-rule:nonzero;stroke:none"
           id="path2393" /><path
           d="m 255.627,476.773 c 1.744,1.653 3.414,3.407 5,5.263 16.311,-5.372 33.363,-3.518 47.558,3.922 l -65.382,41.266 z"
           style="fill:#feb200;fill-opacity:1;fill-rule:nonzero;stroke:none"
           id="path2395" /><path
           d="m 314.54,391.617 c -10.207,10.806 -26.25,13.208 -39.1,7.211 l 7.568,-29.769 z"
           style="fill:#feb200;fill-opacity:1;fill-rule:nonzero;stroke:none"
           id="path2397" /><path
           d="m 131.648,448.223 c -5.396,-6.317 -9.824,-13.485 -13.094,-21.29 v -10.68 l 45.356,5.149 z"
           style="fill:#f35c00;fill-opacity:1;fill-rule:nonzero;stroke:none"
           id="path2399" /><path
           d="m 551.505,411.411 h 46.471 v 23.313 H 543.149 L 528.12,411.953 v -10.774 l 23.385,-8.158 z"
           style="fill:#d3bf55;fill-opacity:1;fill-rule:nonzero;stroke:none"
           id="path2401" /><path
           d="m 165.018,422.887 v 7.256 c 11.8,6.866 20.283,17.915 24.154,30.948 1.192,-0.365 2.389,-0.695 3.588,-0.991 l 50.043,67.124 -34.859,3.699 c -2.914,-3.109 -5.569,-6.495 -7.922,-10.136 -23.24,-6.877 -39.778,-27.677 -41.191,-51.977 -0.213,-0.099 -0.424,-0.202 -0.636,-0.303 l 5.715,-47.105 z"
           style="fill:#ff8500;fill-opacity:1;fill-rule:nonzero;stroke:none"
           id="path2403" /><path
           d="m 192.76,460.1 c 22.506,-5.564 46.135,0.818 62.867,16.673 l -12.824,50.451 z"
           style="fill:#fe9400;fill-opacity:1;fill-rule:nonzero;stroke:none"
           id="path2405" /><path
           d="m 275.44,398.828 c -6.919,-3.228 -12.914,-8.89 -16.569,-16.994 h -4.931 l 29.068,-12.775 z"
           style="fill:#fe9400;fill-opacity:1;fill-rule:nonzero;stroke:none"
           id="path2407" /><path
           d="m 165.018,420.915 v 1.972 l -1.108,-1.485 z"
           style="fill:#fe9400;fill-opacity:1;fill-rule:nonzero;stroke:none"
           id="path2409" /><path
           d="M 88.982,334.68 V 321.104 L 99.124,334.68 Z"
           style="fill:#f04f00;fill-opacity:1;fill-rule:nonzero;stroke:none"
           id="path2411" /><path
           d="m 118.554,416.253 v -55.565 l 45.356,60.714 z"
           style="fill:#f04f00;fill-opacity:1;fill-rule:nonzero;stroke:none"
           id="path2413" /><path
           d="M 163.91,421.402 118.554,360.688 V 334.68 H 99.124 L 88.982,321.104 v -59.573 l 74.548,0.948 z"
           style="fill:#f64e00;fill-opacity:1;fill-rule:nonzero;stroke:none"
           id="path2415" /><path
           d="m 459.792,358.088 v 3.885 c 0,31.859 -48.069,31.859 -48.069,0 V 334.68 h -30.675 l -0.184,-33.514 z"
           style="fill:#fb9b00;fill-opacity:1;fill-rule:nonzero;stroke:none"
           id="path2417" /><path
           d="m 380.864,301.166 0.184,33.514 h -45.373 v 47.154 h -14.668 c -1.687,3.797 -3.891,7.057 -6.467,9.783 l -31.532,-22.558 z"
           style="fill:#ffa300;fill-opacity:1;fill-rule:nonzero;stroke:none"
           id="path2419" /><path
           d="m 163.53,262.479 119.478,106.58 -29.068,12.775 h -9.666 V 334.68 h -79.256 v 86.235 l -1.108,0.487 z"
           style="fill:#fd7700;fill-opacity:1;fill-rule:nonzero;stroke:none"
           id="path2421" /><path
           d="m 514.375,247.686 4.456,86.994 h -59.039 v 23.408 l -78.928,-56.922 z"
           style="fill:#f56500;fill-opacity:1;fill-rule:nonzero;stroke:none"
           id="path2423" /><path
           d="m 567.712,323.398 v 2.805 h 1.976 l 4.902,6.957 v 1.52 h -23.085 v 58.341 l -23.385,8.158 V 334.68 h -9.289 l -4.456,-86.994 z"
           style="fill:#e07000;fill-opacity:1;fill-rule:nonzero;stroke:none"
           id="path2425" /><path
           d="m 380.864,301.166 -97.856,67.893 11.378,-109.616 z"
           style="fill:#ff8800;fill-opacity:1;fill-rule:nonzero;stroke:none"
           id="path2427" /><path
           d="M 283.008,369.059 163.53,262.479 294.386,259.443 Z"
           style="fill:#fd7400;fill-opacity:1;fill-rule:nonzero;stroke:none"
           id="path2429" /><path
           d="m 644.517,258.16 v 61.008 h 15.667 v 15.512 h -45.903 l 4.023,-15.512 h 10.703 v -41.264 l 6.362,-24.529 z"
           style="fill:#c22c01;fill-opacity:1;fill-rule:nonzero;stroke:none"
           id="path2431" /><path
           d="m 567.712,250.193 v 73.205 l -53.337,-75.712 z"
           style="fill:#d54200;fill-opacity:1;fill-rule:nonzero;stroke:none"
           id="path2433" /><path
           d="m 574.59,326.203 v 6.957 l -4.902,-6.957 z"
           style="fill:#d54200;fill-opacity:1;fill-rule:nonzero;stroke:none"
           id="path2435" /><path
           d="m 613.485,334.68 v -15.512 h 4.819 l -4.023,15.512 z"
           style="fill:#d54200;fill-opacity:1;fill-rule:nonzero;stroke:none"
           id="path2437" /><path
           d="m 629.007,277.904 v -24.828 l 6.362,0.299 z"
           style="fill:#d54200;fill-opacity:1;fill-rule:nonzero;stroke:none"
           id="path2439" /><path
           d="m 278.455,185.863 3.414,-2.277 1.098,6.65 c -1.613,-1.357 -3.118,-2.82 -4.512,-4.373"
           style="fill:#fa6200;fill-opacity:1;fill-rule:nonzero;stroke:none"
           id="path2441" /><path
           d="m 294.386,259.443 -130.856,3.036 100.347,-66.897 h 19.972 z"
           style="fill:#fa6200;fill-opacity:1;fill-rule:nonzero;stroke:none"
           id="path2443" /><path
           d="m 163.53,262.479 -74.548,-0.948 v -33.91 l 38.895,-28.863 z"
           style="fill:#f03600;fill-opacity:1;fill-rule:nonzero;stroke:none"
           id="path2445" /><path
           d="m 345.036,195.582 h 22.244 l 13.584,105.584 -86.478,-41.723 z"
           style="fill:#ff7200;fill-opacity:1;fill-rule:nonzero;stroke:none"
           id="path2447" /><path
           d="m 396.219,195.582 c -7.526,-3.984 -13.626,-9.889 -17.836,-16.922 l 135.992,69.026 -133.511,53.48 -13.584,-105.584 z"
           style="fill:#fc6300;fill-opacity:1;fill-rule:nonzero;stroke:none"
           id="path2449" /><path
           d="m 645.216,211.26 h 20.93 v -15.522 h 5.507 c 2.285,0 4.052,1.791 4.052,3.895 v 37.297 c 0,2.115 -1.767,3.908 -4.052,3.908 h -5.507 v -14.141 h -21.629 v 31.463 l -9.148,-4.785 z"
           style="fill:#be0006;fill-opacity:1;fill-rule:nonzero;stroke:none"
           id="path2451" /><path
           d="m 378.383,178.66 c -1.376,-2.299 -2.545,-4.721 -3.5,-7.234 l 85.919,-0.192 c -3.848,10.286 -11.325,19.03 -21.252,24.348 h 62.281 C 491.778,190.256 484.3,181.494 480.474,171.191 l 55.141,-0.123 -21.24,76.618 z"
           style="fill:#f23700;fill-opacity:1;fill-rule:nonzero;stroke:none"
           id="path2453" /><path
           d="m 629.007,253.076 v -4.949 l 6.362,5.248 z"
           style="fill:#db2f00;fill-opacity:1;fill-rule:nonzero;stroke:none"
           id="path2455" /><path
           d="m 535.615,171.068 20.257,16.715 c -3.123,3.121 -6.713,5.817 -10.703,7.955 h 20.344 l 54.66,45.1 h -52.461 v 9.355 l -53.337,-2.507 z"
           style="fill:#db2f00;fill-opacity:1;fill-rule:nonzero;stroke:none"
           id="path2457" /><path
           d="m 333.854,195.582 h 11.182 l -50.65,63.861 -10.537,-63.861 h 7.046 c -2.866,-1.518 -5.515,-3.314 -7.928,-5.346 l -1.098,-6.65 72.575,-10.703 c -4.005,9.568 -11.199,17.668 -20.59,22.699"
           style="fill:#fa6800;fill-opacity:1;fill-rule:nonzero;stroke:none"
           id="path2459" /><path
           d="m 88.982,227.621 v -0.924 H 67.274 v 14.141 h -5.428 c -2.111,0 -3.896,-1.793 -3.896,-3.908 v -37.297 c 0,-2.104 1.785,-3.895 3.896,-3.895 h 5.428 v 15.522 h 21.708 v -15.522 l 30.412,0.049 8.483,2.971 z"
           style="fill:#e42300;fill-opacity:1;fill-rule:nonzero;stroke:none"
           id="path2461" /><path
           d="m 228.614,195.582 h 35.263 l -100.347,66.897 -35.653,-63.721 29.523,-2.908 28.027,0.045 c -1.399,-0.752 -2.731,-1.559 -4.007,-2.413 l 57.757,-5.689 c -3.1,3.051 -6.643,5.689 -10.563,7.789"
           style="fill:#f64d00;fill-opacity:1;fill-rule:nonzero;stroke:none"
           id="path2463" /><path
           d="m 276.933,184.072 4.936,-0.486 -3.414,2.277 c -0.523,-0.586 -1.031,-1.181 -1.522,-1.791"
           style="fill:#f64d00;fill-opacity:1;fill-rule:nonzero;stroke:none"
           id="path2465" /><path
           d="m 644.517,195.738 v 15.522 h 0.699 l -9.847,42.115 -6.362,-5.248 v -7.289 h -8.834 l -54.66,-45.1 z"
           style="fill:#ca1500;fill-opacity:1;fill-rule:nonzero;stroke:none"
           id="path2467" /><path
           d="m 568.286,164.994 c -1.863,8.662 -6.204,16.576 -12.414,22.789 l -20.257,-16.715 z"
           style="fill:#ca1500;fill-opacity:1;fill-rule:nonzero;stroke:none"
           id="path2469" /><path
           d="m 560.248,128.152 c 5.767,7.725 9.064,17.235 9.064,27.235 0,3.269 -0.354,6.486 -1.026,9.607 l -32.671,6.074 z"
           style="fill:#c80b00;fill-opacity:1;fill-rule:nonzero;stroke:none"
           id="path2471" /><path
           d="m 568.126,114.426 4.478,-7.805 h 56.853 l 5.773,7.805 z"
           style="fill:#c80b00;fill-opacity:1;fill-rule:nonzero;stroke:none"
           id="path2473" /><path
           d="m 482.513,134.602 c 4.426,-8.77 11.635,-16.045 20.773,-20.563 h -50.714 l -10.801,-7.418 h 86.985 l 6.859,64.447 z"
           style="fill:#e21c00;fill-opacity:1;fill-rule:nonzero;stroke:none"
           id="path2475" /><path
           d="m 477.604,155.232 c 0,-7.336 1.746,-14.365 4.909,-20.63 l 53.102,36.466 -55.141,0.123 c -1.868,-5.025 -2.87,-10.418 -2.87,-15.959"
           style="fill:#f24600;fill-opacity:1;fill-rule:nonzero;stroke:none"
           id="path2477" /><path
           d="m 438.096,114.039 c 15.678,7.744 25.609,23.76 25.609,41.193 0,5.557 -1.018,10.965 -2.903,16.002 l -85.919,0.192 c -1.935,-5.094 -2.975,-10.567 -2.975,-16.194 0,-17.603 10.087,-33.449 25.753,-41.193 h -26.058 l 0.96,-7.418 h 69.208 l 10.801,7.418 z"
           style="fill:#f24600;fill-opacity:1;fill-rule:nonzero;stroke:none"
           id="path2479" /><path
           d="m 266.981,158.996 c -0.1,-1.246 -0.157,-2.5 -0.157,-3.764 0,-17.603 9.835,-33.449 25.682,-41.193 h -52.742 l -4.492,-7.418 h 66.125 l -19.528,76.965 z"
           style="fill:#e94c00;fill-opacity:1;fill-rule:nonzero;stroke:none"
           id="path2481" /><path
           d="m 119.394,195.787 6.677,0.012 1.806,2.959 z"
           style="fill:#db1300;fill-opacity:1;fill-rule:nonzero;stroke:none"
           id="path2483" /><path
           d="m 57.956,114.426 -0.006,-7.805 h 13.704 l 4.762,7.805 z"
           style="fill:#db1300;fill-opacity:1;fill-rule:nonzero;stroke:none"
           id="path2485" /><path
           d="m 76.416,114.426 -4.762,-7.805 h 82.849 l -2.255,7.805 z"
           style="fill:#dd1c00;fill-opacity:1;fill-rule:nonzero;stroke:none"
           id="path2487" /><path
           d="m 126.071,195.799 2.66,0.004 -0.854,2.955 z"
           style="fill:#dd1c00;fill-opacity:1;fill-rule:nonzero;stroke:none"
           id="path2489" /><path
           d="m 128.731,195.803 28.669,0.047 -29.523,2.908 z"
           style="fill:#ed4100;fill-opacity:1;fill-rule:nonzero;stroke:none"
           id="path2491" /><path
           d="m 266.981,158.996 14.888,24.59 -4.936,0.486 c -5.7,-7.066 -9.203,-15.783 -9.952,-25.076"
           style="fill:#ed4100;fill-opacity:1;fill-rule:nonzero;stroke:none"
           id="path2493" /><path
           d="m 227.003,114.039 c 15.847,7.744 25.91,23.76 25.91,41.193 0,12.424 -5.142,24.098 -13.736,32.561 l -57.757,5.689 c -28.937,-19.33 -26.58,-63.546 5.462,-79.056 h -34.634 l 2.255,-7.805 h 80.769 l 4.492,7.418 z"
           style="fill:#ed4100;fill-opacity:1;fill-rule:nonzero;stroke:none"
           id="path2495" /><path
           d="m 354.444,172.883 -72.575,10.703 19.528,-76.965 h 21.85 l 34.371,54.442 c -0.527,4.103 -1.605,8.074 -3.174,11.82"
           style="fill:#f55e00;fill-opacity:1;fill-rule:nonzero;stroke:none"
           id="path2497" /><path
           d="m 332.472,114.039 c 15.677,7.744 25.525,23.76 25.525,41.193 0,1.965 -0.132,3.911 -0.379,5.831 l -34.371,-54.442 h 49.316 l -0.96,7.418 z"
           style="fill:#f15700;fill-opacity:1;fill-rule:nonzero;stroke:none"
           id="path2499" /><path
           d="m 543.63,114.426 c 6.684,3.228 12.332,7.984 16.618,13.726 l -24.633,42.916 -6.859,-64.447 h 43.848 l -4.478,7.805 z"
           style="fill:#cf1300;fill-opacity:1;fill-rule:nonzero;stroke:none"
           id="path2501" /><path
           d="m 629.457,106.621 h 46.248 v 7.805 H 635.23 Z"
           style="fill:#b40012;fill-opacity:1;fill-rule:nonzero;stroke:none"
           id="path2503" /></g></g></g></svg>
